# xmcd
#
# Track frame offsets:
#	150
#	13454
#	25721
#	47029
#	62440
#	85296
#
# Disc length: 1390 seconds
#
# Revision: 0
# Processed by: cddbd v1.4PL0 Copyright (c) Steve Scherf et al.
# Submitted via: dBpowerAMP V4.0
#
DISCID=44056c06
DTITLE=The Predators - Morganfield
DYEAR=2002
DGENRE=Blues
TTITLE0=Rollin' and Tumblin'
TTITLE1=I Can't Be Satisfied
TTITLE2=Standin' Round Crying
TTITLE3=Baby Please Don't Go
TTITLE4=Taildragger
TTITLE5=Still A Fool
EXTD=
EXTT0=
EXTT1=
EXTT2=
EXTT3=
EXTT4=
EXTT5=
PLAYORDER=
